<svg xmlns="http://www.w3.org/2000/svg" viewBox="1 1 22 22">
	<path d="m 2 2 L 22 22 m -9.78 -20 H 11.78 A 2 2 0 0 0 9.78 4 V 4.18 A 2 2 0 0 1 8.78 5.91 L 8.35 6.16 M 6.2 6.08 a 2 2 0 0 0 -2.73 0.73 l -0.22 0.38 a 2 2 0 0 0 0.73 2.73 l 0.15 0.1 a 2 2 0 0 1 1 1.72 v 0.51 a 2 2 0 0 1 -1 1.74 l -0.15 0.09 a 2 2 0 0 0 -0.73 2.73 l 0.22 0.38 a 2 2 0 0 0 2.73 0.73 l 0.15 -0.08 a 2 2 0 0 1 2 0 l 0.43 0.25 a 2 2 0 0 1 1 1.73 V 20 a 2 2 0 0 0 2 2 h 0.44 a 2 2 0 0 0 2 -2 v -0.18 a 2 2 0 0 1 1 -1.73 l 0.43 -0.25 a 2 2 0 0 1 2 0 L 17.8 17.92 M 19 18 A 2 2 0 0 0 20.53 17.19 l 0.22 -0.39 a 2 2 0 0 0 -0.73 -2.73 l -0.15 -0.08 a 2 2 0 0 1 -1 -1.74 v -0.5 a 2 2 0 0 1 1 -1.74 l 0.15 -0.09 a 2 2 0 0 0 0.73 -2.73 l -0.22 -0.38 a 2 2 0 0 0 -2.73 -0.73 l -0.15 0.08 a 2 2 0 0 1 -2 0 l -0.43 -0.25 a 2 2 0 0 1 -1 -1.73 V 4 a 2 2 0 0 0 -2 -2 L 12.22 2" stroke="#000000" stroke-width="2" fill="none"/>
	<circle cx="12" cy="12" r="3"/>
</svg>